<?xml version="1.0" encoding="UTF-8"?>
<svg version="1.1" xmlns="http://www.w3.org/2000/svg" width="512" height="512">
<path d="M0 0 C6.13923385 3.1792461 9.08639125 9.17724336 12.35107422 15.01074219 C13.87884239 17.7279176 15.4400922 20.42450302 17.00390625 23.12109375 C19.58544805 27.57581917 22.15771336 32.03569666 24.72265625 36.5 C28.36433744 42.83293097 32.03428791 49.14891167 35.71875 55.45703125 C36.29189941 56.43841064 36.86504883 57.41979004 37.45556641 58.4309082 C38.61099652 60.40879005 39.76659496 62.38657357 40.92236328 64.36425781 C43.8363584 69.35194082 46.74607568 74.3421183 49.65625 79.33203125 C50.82289643 81.33204305 51.98956309 83.33204306 53.15625 85.33203125 C60.15625 97.33203125 60.15625 97.33203125 61.90795898 100.33520508 C63.0686454 102.32479114 64.22961311 104.31421314 65.39086914 106.3034668 C68.4014222 111.46145466 71.40627326 116.62264693 74.40234375 121.7890625 C75.02044922 122.85318359 75.63855469 123.91730469 76.27539062 125.01367188 C77.44390305 127.02562185 78.61071433 129.03856132 79.77539062 131.05273438 C83.57359905 137.58674719 87.55492529 143.98410141 91.65625 150.33203125 C92.05714844 149.62522217 92.45804687 148.91841309 92.87109375 148.19018555 C101.02282755 133.83338341 109.26421863 119.54198736 117.71386719 105.35791016 C122.34476573 97.57432493 126.89480509 89.74787298 131.40625 81.89453125 C133.23621245 78.72176685 135.06763892 75.54985406 136.89990234 72.37841797 C138.06280851 70.3613561 139.22204379 68.34217301 140.37744141 66.32080078 C141.97823843 63.52512812 143.59616906 60.74010138 145.21875 57.95703125 C145.68313477 57.13662354 146.14751953 56.31621582 146.62597656 55.47094727 C149.34912703 50.84563967 151.71083794 47.80473728 156.65625 45.33203125 C159.25390625 44.8359375 159.25390625 44.8359375 161.71875 44.89453125 C162.53472656 44.89582031 163.35070312 44.89710937 164.19140625 44.8984375 C168.63832232 45.68070007 170.99482318 47.41287151 173.62109375 51.0625 C174.27207031 52.20332031 174.92304688 53.34414063 175.59375 54.51953125 C176.1518335 55.48391113 176.1518335 55.48391113 176.72119141 56.46777344 C177.56516632 57.92742112 178.40403348 59.3900297 179.23876953 60.85498047 C181.37467765 64.58748543 183.55526961 68.29357217 185.73022461 72.00341797 C187.53668866 75.09132792 189.33136186 78.18587611 191.125 81.28125 C193.37845462 85.16240553 195.66746151 89.01745235 198 92.8515625 C198.51320801 93.70588867 199.02641602 94.56021484 199.55517578 95.44042969 C200.51002732 97.02795328 201.47644011 98.60860459 202.45654297 100.18066406 C205.16781903 104.72588721 206.35547457 107.88995322 205.65625 113.33203125 C205.24761719 113.98816406 204.83898437 114.64429687 204.41796875 115.3203125 C203.28985071 117.58745556 203.28985071 117.58745556 205.17578125 120.75 C205.9238437 122.01625847 206.6889275 123.27258104 207.46875 124.51953125 C207.85095703 125.16083984 208.23316406 125.80214844 208.62695312 126.46289062 C210.40662381 129.57189477 210.40662381 129.57189477 212.65625 132.33203125 C213.56375 132.24953125 214.47125 132.16703125 215.40625 132.08203125 C219.80601146 132.42047444 220.76932357 134.07875919 223.65625 137.33203125 C224.93359514 139.20993288 226.14455086 141.13434665 227.29296875 143.09375 C228.27559692 144.75942017 228.27559692 144.75942017 229.27807617 146.45874023 C229.96709496 147.64540311 230.65564374 148.832339 231.34375 150.01953125 C232.05735083 151.23986812 232.7713021 152.46000013 233.4855957 153.67993164 C235.55549438 157.22319478 237.60745364 160.77652449 239.65625 164.33203125 C240.19636719 165.26595703 240.73648437 166.19988281 241.29296875 167.16210938 C255.85856051 192.44688327 263.06539253 218.33095339 256.6875 247.50390625 C251.57144854 266.4953094 242.63949757 281.54483342 228.65625 295.33203125 C227.91761719 296.08097656 227.17898438 296.82992188 226.41796875 297.6015625 C212.44723953 310.94084633 190.71952536 320.99968762 171.2578125 321.40234375 C169.97003906 321.36753906 169.97003906 321.36753906 168.65625 321.33203125 C168.98625 322.32203125 169.31625 323.31203125 169.65625 324.33203125 C171.33755259 362.18088959 162.10832069 402.28344701 139.65625 433.33203125 C138.96015625 434.30914062 138.2640625 435.28625 137.546875 436.29296875 C133.23740207 442.19248858 128.66593231 447.72336148 123.7109375 453.08984375 C121.93935243 455.02309438 120.25842659 456.99492459 118.59375 459.01953125 C115.28712814 462.88173727 111.58000422 466.10917092 107.65625 469.33203125 C106.90529053 469.95150635 106.90529053 469.95150635 106.13916016 470.58349609 C98.0399767 477.22621591 89.77944663 483.13946355 80.65625 488.33203125 C80.03975586 488.69006836 79.42326172 489.04810547 78.78808594 489.41699219 C55.80766008 502.67183512 28.91389864 511.37420858 2.23046875 511.53515625 C1.44951843 511.54221588 0.66856812 511.54927551 -0.13604736 511.55654907 C-32.63016141 511.78368754 -32.63016141 511.78368754 -46.34375 508.33203125 C-47.56723145 508.03401611 -47.56723145 508.03401611 -48.81542969 507.72998047 C-75.34066772 501.11601096 -103.64680127 490.02897998 -123.34375 470.33203125 C-123.1375 469.05328125 -122.93125 467.77453125 -122.71875 466.45703125 C-122.59320616 461.93006808 -124.2775298 459.65144416 -127.17529297 456.41088867 C-131.79788806 451.44703234 -131.79788806 451.44703234 -137.86328125 448.88671875 C-139.3341579 449.05673251 -140.80316945 449.24387545 -142.26953125 449.44921875 C-145.31150126 449.27735604 -146.24803617 447.98536907 -148.28125 445.76953125 C-149.67968625 443.99096451 -151.02939233 442.17360328 -152.34375 440.33203125 C-152.73175781 439.79594238 -153.11976563 439.25985352 -153.51953125 438.70751953 C-181.29838134 399.98247971 -192.13609558 352.42507774 -185.34375 305.33203125 C-180.96873971 279.69212075 -171.59608781 255.95317685 -157.6484375 234.0234375 C-154.53695711 229.10279317 -151.64336221 224.05254767 -148.71875 219.01953125 C-148.11836914 217.98731445 -147.51798828 216.95509766 -146.89941406 215.89160156 C-145.66264731 213.76441512 -144.42632403 211.63697078 -143.19042969 209.50927734 C-140.24784808 204.446512 -137.29542552 199.38949805 -134.34375 194.33203125 C-133.17575098 192.32944474 -132.00778228 190.32684054 -130.83984375 188.32421875 C-128.52122926 184.34926626 -126.20077684 180.37539508 -123.87890625 176.40234375 C-117.87597941 166.12670568 -111.90187212 155.83564562 -105.96875 145.51953125 C-100.1718574 135.44446412 -94.27101707 125.43490369 -88.32910156 115.44482422 C-83.09649196 106.63435103 -77.95572711 97.77376284 -72.84765625 88.890625 C-68.70615169 81.68876655 -64.53671799 74.50404251 -60.34375 67.33203125 C-56.10031956 60.07307447 -51.87906415 52.80203994 -47.68505859 45.5144043 C-45.18958103 41.17916006 -42.68780081 36.84757891 -40.18408203 32.51708984 C-38.95404745 30.38827171 -37.72586585 28.25838187 -36.49951172 26.12744141 C-34.74713881 23.08682232 -32.98436561 20.05247498 -31.21875 17.01953125 C-30.69853271 16.11251465 -30.17831543 15.20549805 -29.64233398 14.27099609 C-22.66717082 2.35428491 -14.29096439 -4.07292485 0 0 Z " fill="#67E6FC" transform="translate(248.34375,0.66796875)"/>
<path d="M0 0 C6.13923385 3.1792461 9.08639125 9.17724336 12.35107422 15.01074219 C13.87884239 17.7279176 15.4400922 20.42450302 17.00390625 23.12109375 C19.58544805 27.57581917 22.15771336 32.03569666 24.72265625 36.5 C28.36433744 42.83293097 32.03428791 49.14891167 35.71875 55.45703125 C36.29189941 56.43841064 36.86504883 57.41979004 37.45556641 58.4309082 C38.61099652 60.40879005 39.76659496 62.38657357 40.92236328 64.36425781 C43.8363584 69.35194082 46.74607568 74.3421183 49.65625 79.33203125 C50.82289643 81.33204305 51.98956309 83.33204306 53.15625 85.33203125 C60.15625 97.33203125 60.15625 97.33203125 61.90795898 100.33520508 C63.0686454 102.32479114 64.22961311 104.31421314 65.39086914 106.3034668 C68.4014222 111.46145466 71.40627326 116.62264693 74.40234375 121.7890625 C75.02044922 122.85318359 75.63855469 123.91730469 76.27539062 125.01367188 C77.44390305 127.02562185 78.61071433 129.03856132 79.77539062 131.05273438 C83.57359905 137.58674719 87.55492529 143.98410141 91.65625 150.33203125 C92.05714844 149.62522217 92.45804687 148.91841309 92.87109375 148.19018555 C101.02282755 133.83338341 109.26421863 119.54198736 117.71386719 105.35791016 C122.34476573 97.57432493 126.89480509 89.74787298 131.40625 81.89453125 C133.23621245 78.72176685 135.06763892 75.54985406 136.89990234 72.37841797 C138.06280851 70.3613561 139.22204379 68.34217301 140.37744141 66.32080078 C141.97823843 63.52512812 143.59616906 60.74010138 145.21875 57.95703125 C145.68313477 57.13662354 146.14751953 56.31621582 146.62597656 55.47094727 C149.34912703 50.84563967 151.71083794 47.80473728 156.65625 45.33203125 C159.25390625 44.8359375 159.25390625 44.8359375 161.71875 44.89453125 C162.53472656 44.89582031 163.35070312 44.89710937 164.19140625 44.8984375 C168.63832232 45.68070007 170.99482318 47.41287151 173.62109375 51.0625 C174.27207031 52.20332031 174.92304688 53.34414063 175.59375 54.51953125 C176.1518335 55.48391113 176.1518335 55.48391113 176.72119141 56.46777344 C177.56516632 57.92742112 178.40403348 59.3900297 179.23876953 60.85498047 C181.37467765 64.58748543 183.55526961 68.29357217 185.73022461 72.00341797 C187.53668866 75.09132792 189.33136186 78.18587611 191.125 81.28125 C193.37845462 85.16240553 195.66746151 89.01745235 198 92.8515625 C198.51320801 93.70588867 199.02641602 94.56021484 199.55517578 95.44042969 C200.51002732 97.02795328 201.47644011 98.60860459 202.45654297 100.18066406 C205.16781903 104.72588721 206.35547457 107.88995322 205.65625 113.33203125 C205.24761719 113.98816406 204.83898437 114.64429687 204.41796875 115.3203125 C203.28985071 117.58745556 203.28985071 117.58745556 205.17578125 120.75 C205.9238437 122.01625847 206.6889275 123.27258104 207.46875 124.51953125 C207.85095703 125.16083984 208.23316406 125.80214844 208.62695312 126.46289062 C210.40662381 129.57189477 210.40662381 129.57189477 212.65625 132.33203125 C213.56375 132.24953125 214.47125 132.16703125 215.40625 132.08203125 C219.80601146 132.42047444 220.76932357 134.07875919 223.65625 137.33203125 C224.93359514 139.20993288 226.14455086 141.13434665 227.29296875 143.09375 C228.27559692 144.75942017 228.27559692 144.75942017 229.27807617 146.45874023 C229.96709496 147.64540311 230.65564374 148.832339 231.34375 150.01953125 C232.05735083 151.23986812 232.7713021 152.46000013 233.4855957 153.67993164 C235.55549438 157.22319478 237.60745364 160.77652449 239.65625 164.33203125 C240.19636719 165.26595703 240.73648437 166.19988281 241.29296875 167.16210938 C255.85856051 192.44688327 263.06539253 218.33095339 256.6875 247.50390625 C251.57144854 266.4953094 242.63949757 281.54483342 228.65625 295.33203125 C227.91761719 296.08097656 227.17898438 296.82992188 226.41796875 297.6015625 C212.44723953 310.94084633 190.71952536 320.99968762 171.2578125 321.40234375 C169.97003906 321.36753906 169.97003906 321.36753906 168.65625 321.33203125 C168.98625 322.32203125 169.31625 323.31203125 169.65625 324.33203125 C171.33755259 362.18088959 162.10832069 402.28344701 139.65625 433.33203125 C138.96015625 434.30914062 138.2640625 435.28625 137.546875 436.29296875 C133.23740207 442.19248858 128.66593231 447.72336148 123.7109375 453.08984375 C121.93935243 455.02309438 120.25842659 456.99492459 118.59375 459.01953125 C115.28712814 462.88173727 111.58000422 466.10917092 107.65625 469.33203125 C106.90529053 469.95150635 106.90529053 469.95150635 106.13916016 470.58349609 C98.0399767 477.22621591 89.77944663 483.13946355 80.65625 488.33203125 C80.03975586 488.69006836 79.42326172 489.04810547 78.78808594 489.41699219 C55.80766008 502.67183512 28.91389864 511.37420858 2.23046875 511.53515625 C1.44951843 511.54221588 0.66856812 511.54927551 -0.13604736 511.55654907 C-32.63016141 511.78368754 -32.63016141 511.78368754 -46.34375 508.33203125 C-47.56723145 508.03401611 -47.56723145 508.03401611 -48.81542969 507.72998047 C-75.34066772 501.11601096 -103.64680127 490.02897998 -123.34375 470.33203125 C-123.89486518 467.27479232 -123.88058787 464.3908887 -123.34375 461.33203125 C-121.28125 459.20703125 -121.28125 459.20703125 -118.34375 458.33203125 C-112.93417148 458.65395483 -110.10112631 459.82184485 -105.96875 463.26953125 C-81.05249042 482.81108646 -49.01145903 494.61153083 -17.34375 495.33203125 C-16.44414551 495.36312988 -15.54454102 495.39422852 -14.61767578 495.42626953 C22.7431908 496.6409097 58.69070624 485.97805622 88.65625 463.33203125 C89.53925781 462.67203125 90.42226563 462.01203125 91.33203125 461.33203125 C121.82801478 437.47739524 141.02252365 404.71145521 149.96875 367.26953125 C150.12811035 366.60405273 150.2874707 365.93857422 150.45166016 365.25292969 C152.72873805 355.19562645 152.92145961 345.03879088 153.21875 334.76953125 C153.26204176 333.36522422 153.30565904 331.96092719 153.34960938 330.55664062 C153.45501511 327.14852174 153.55713982 323.74033805 153.65625 320.33203125 C153.0286377 320.35523438 152.40102539 320.3784375 151.75439453 320.40234375 C145.98428581 320.5241632 141.03326284 320.05245218 135.53125 318.33203125 C134.81042236 318.1112793 134.08959473 317.89052734 133.34692383 317.66308594 C120.34405607 313.47656191 109.17971083 306.99655739 98.65625 298.33203125 C97.91890625 297.74679687 97.1815625 297.1615625 96.421875 296.55859375 C78.44563608 281.71774534 67.53220584 258.22923416 64.65625 235.33203125 C62.7170542 213.54231013 67.10636584 190.23753594 79.96484375 172.0703125 C81.87676144 169.60495712 81.87676144 169.60495712 81.45166016 167.50878906 C80.43967174 164.73933274 79.09078253 162.32344269 77.62109375 159.765625 C76.98486084 158.65429199 76.34862793 157.54295898 75.69311523 156.39794922 C74.99354549 155.18835007 74.29375094 153.97888092 73.59375 152.76953125 C72.86965815 151.51070301 72.14578462 150.25174917 71.42211914 148.99267578 C65.89501339 139.39561655 60.25945725 129.86413054 54.59399414 120.34814453 C49.37329778 111.57185834 44.2502188 102.74255527 39.15991211 93.89013672 C34.45081931 85.70143397 29.70063903 77.53762184 24.93188477 69.38354492 C21.22623521 63.04107274 17.55257622 56.68104298 13.89575195 50.31030273 C10.83025169 44.97587398 7.74618239 39.65233615 4.65625 34.33203125 C4.10710937 33.38279785 3.55796875 32.43356445 2.9921875 31.45556641 C1.49832818 28.88500615 -0.01275707 26.32559596 -1.53125 23.76953125 C-1.9646167 23.01945801 -2.3979834 22.26938477 -2.84448242 21.49658203 C-4.92746721 17.72601751 -4.92746721 17.72601751 -8.4855957 15.63696289 C-9.09878662 15.53633545 -9.71197754 15.43570801 -10.34375 15.33203125 C-14.89284851 21.87930222 -18.91646779 28.66287936 -22.83306885 35.60388184 C-24.58705756 38.7114681 -26.35279066 41.81237774 -28.1171875 44.9140625 C-28.65217361 45.85540543 -28.65217361 45.85540543 -29.19796753 46.81576538 C-32.58047169 52.76188005 -36.01545502 58.67675933 -39.46875 64.58203125 C-40.03787109 65.555354 -40.60699219 66.52867676 -41.19335938 67.53149414 C-42.33722936 69.48668735 -43.4814332 71.44168528 -44.62597656 73.39648438 C-47.53735707 78.37181684 -50.44006397 83.35220567 -53.34375 88.33203125 C-54.5103762 90.33205486 -55.67704284 92.33205487 -56.84375 94.33203125 C-57.42125 95.32203125 -57.99875 96.31203125 -58.59375 97.33203125 C-77.84375 130.33203125 -77.84375 130.33203125 -79.59350586 133.33154297 C-80.76106728 135.33312336 -81.92854764 137.33475102 -83.09594727 139.33642578 C-85.99826416 144.31263517 -88.90194916 149.2880358 -91.80859375 154.26171875 C-97.18125657 163.45848894 -102.53992034 172.6624842 -107.85009766 181.89550781 C-114.28922462 193.09120963 -120.81395087 204.2315116 -127.41333008 215.33349609 C-133.57886108 225.70983628 -139.67799479 236.12436923 -145.72949219 246.56762695 C-146.8535192 248.49251472 -147.99060998 250.40980844 -149.13769531 252.32104492 C-152.9084731 258.6426132 -156.20822333 264.9452658 -158.96875 271.76953125 C-159.34845947 272.70547119 -159.72816895 273.64141113 -160.11938477 274.60571289 C-163.91817223 284.2955031 -166.38091783 294.12835047 -168.34375 304.33203125 C-168.58867187 305.52957031 -168.83359375 306.72710937 -169.0859375 307.9609375 C-172.30165258 326.96889716 -171.63011118 347.56345955 -167.34375 366.33203125 C-167.07691406 367.62109375 -166.81007813 368.91015625 -166.53515625 370.23828125 C-161.09360542 395.20631557 -149.31791094 417.6003737 -133.5859375 437.5625 C-131.85613467 440.02665309 -131.83977889 441.38020048 -132.34375 444.33203125 C-133.84375 447.14453125 -133.84375 447.14453125 -136.34375 449.33203125 C-139.86128821 450.15279017 -141.07145202 450.42879046 -144.34375 449.33203125 C-147.63204518 446.80308135 -149.91842521 443.67408431 -152.34375 440.33203125 C-152.73320801 439.79594238 -153.12266602 439.25985352 -153.52392578 438.70751953 C-181.2955399 399.97719781 -192.13629295 352.42644618 -185.34375 305.33203125 C-180.96873971 279.69212075 -171.59608781 255.95317685 -157.6484375 234.0234375 C-154.53695711 229.10279317 -151.64336221 224.05254767 -148.71875 219.01953125 C-148.11836914 217.98731445 -147.51798828 216.95509766 -146.89941406 215.89160156 C-145.66264731 213.76441512 -144.42632403 211.63697078 -143.19042969 209.50927734 C-140.24784808 204.446512 -137.29542552 199.38949805 -134.34375 194.33203125 C-133.17575098 192.32944474 -132.00778228 190.32684054 -130.83984375 188.32421875 C-128.52122926 184.34926626 -126.20077684 180.37539508 -123.87890625 176.40234375 C-117.87597941 166.12670568 -111.90187212 155.83564562 -105.96875 145.51953125 C-100.1718574 135.44446412 -94.27101707 125.43490369 -88.32910156 115.44482422 C-83.09649196 106.63435103 -77.95572711 97.77376284 -72.84765625 88.890625 C-68.70615169 81.68876655 -64.53671799 74.50404251 -60.34375 67.33203125 C-56.10031956 60.07307447 -51.87906415 52.80203994 -47.68505859 45.5144043 C-45.18958103 41.17916006 -42.68780081 36.84757891 -40.18408203 32.51708984 C-38.95404745 30.38827171 -37.72586585 28.25838187 -36.49951172 26.12744141 C-34.74713881 23.08682232 -32.98436561 20.05247498 -31.21875 17.01953125 C-30.69853271 16.11251465 -30.17831543 15.20549805 -29.64233398 14.27099609 C-22.66717082 2.35428491 -14.29096439 -4.07292485 0 0 Z " fill="#000102" transform="translate(248.34375,0.66796875)"/>
<path d="M0 0 C0.66 0 1.32 0 2 0 C2.37584229 0.65669678 2.75168457 1.31339355 3.13891602 1.98999023 C10.43219181 14.71876863 17.78207519 27.40988341 25.3125 40 C25.95195557 41.07306396 26.59141113 42.14612793 27.25024414 43.25170898 C27.84442139 44.24114502 28.43859863 45.23058105 29.05078125 46.25 C29.83449097 47.55710937 29.83449097 47.55710937 30.6340332 48.890625 C31.96006989 51.09952137 31.96006989 51.09952137 34 53 C35.25683594 52.89171875 36.51367188 52.7834375 37.80859375 52.671875 C40.40507994 52.60847448 41.53974429 52.59398818 43.51220703 54.33398438 C44.85949462 56.24613017 45.97390941 58.17995602 47.0625 60.25 C47.66481445 61.27287109 47.66481445 61.27287109 48.27929688 62.31640625 C51.10304072 67.3396466 51.10304072 67.3396466 50.66186523 70.16699219 C50 72 50 72 49 73 C47.61415305 80.93012422 51.65701312 86.23480304 55.80917358 92.65591431 C57.8140276 95.76058393 59.7569537 98.90371899 61.70703125 102.04296875 C62.08841751 102.65379807 62.46980377 103.26462738 62.86274719 103.89396667 C77.25113384 127.03123193 86.56289919 152.11035791 80.97216797 179.65185547 C77.72210085 192.803368 71.14935247 205.05431499 62 215 C60.89398438 216.24330078 60.89398438 216.24330078 59.765625 217.51171875 C50.38292823 227.52299487 38.95613176 234.5504194 26 239 C24.34484375 239.5878125 24.34484375 239.5878125 22.65625 240.1875 C3.48085344 246.19023284 -17.19027312 244.02778943 -35.14819336 235.19384766 C-42.04113507 231.57024024 -48.22961438 227.22910992 -54 222 C-54.84175781 221.25105469 -55.68351562 220.50210938 -56.55078125 219.73046875 C-66.38876788 210.48962851 -72.25456743 199.50734166 -77 187 C-77.5259375 185.71802734 -77.5259375 185.71802734 -78.0625 184.41015625 C-85.01120036 166.54620575 -81.34174209 145.6921081 -74.125 128.5625 C-66.3716078 111.17795798 -55.99805499 94.85138321 -46.27734375 78.51953125 C-42.83898938 72.74074102 -39.44696855 66.9354744 -36.0625 61.125 C-35.48113281 60.12718506 -34.89976562 59.12937012 -34.30078125 58.10131836 C-33.1223828 56.07839015 -31.94416053 54.05535931 -30.76611328 52.03222656 C-27.27387759 46.03643347 -23.77645667 40.04366243 -20.27880859 34.05102539 C-17.19541066 28.76725406 -14.11636024 23.48100525 -11.04296875 18.19140625 C-10.07520508 16.52754883 -10.07520508 16.52754883 -9.08789062 14.83007812 C-7.84183672 12.68758256 -6.59700159 10.54437761 -5.35351562 8.40039062 C-4.79728516 7.44455078 -4.24105469 6.48871094 -3.66796875 5.50390625 C-3.17578857 4.65642822 -2.6836084 3.8089502 -2.17651367 2.93579102 C-1 1 -1 1 0 0 Z " fill="#D5F5FC" transform="translate(409,64)"/>
<path d="M0 0 C1.08087891 0.05800781 1.08087891 0.05800781 2.18359375 0.1171875 C9.46658736 3.20259366 13.31294605 12.54518743 16.93920898 19.07733154 C18.66972269 22.193547 20.42621133 25.29510378 22.1796875 28.3984375 C22.53959778 29.03685577 22.89950806 29.67527405 23.27032471 30.33303833 C26.77219551 36.53040374 30.38870151 42.65707733 34.03289795 48.77154541 C35.70861535 51.58467252 37.37674068 54.40230572 39.046875 57.21875 C41.08209325 60.64603163 43.12967926 64.06448726 45.203125 67.46875 C54.15301986 82.30186139 57.14776342 97.63224879 53.8671875 114.75390625 C52.95715472 117.68665896 51.89063875 120.35804428 50.5625 123.125 C50.10359375 124.08792969 49.6446875 125.05085938 49.171875 126.04296875 C41.53587963 140.93315972 29.19152457 150.36486274 13.4375 155.8671875 C-1.1810244 159.90943099 -17.24804374 157.01391191 -30.4140625 150.05078125 C-44.87281177 140.84126783 -52.88191743 128.14607091 -57.05859375 111.67578125 C-60.55075569 88.1666911 -49.62578566 70.56507628 -38.04296875 51.1953125 C-34.86373106 45.86831925 -31.76310597 40.49908303 -28.67919922 35.11645508 C-18.88231898 18.02088666 -18.88231898 18.02088666 -13.8125 9.6875 C-13.43520752 9.0495752 -13.05791504 8.41165039 -12.66918945 7.75439453 C-9.54798898 2.71066962 -6.178637 -0.55068066 0 0 Z " fill="#068BD6" transform="translate(62.4375,16.875)"/>
<path d="M0 0 C0.66 0 1.32 0 2 0 C2.56376343 0.98504517 2.56376343 0.98504517 3.13891602 1.98999023 C10.43219181 14.71876863 17.78207519 27.40988341 25.3125 40 C25.95195557 41.07306396 26.59141113 42.14612793 27.25024414 43.25170898 C27.84442139 44.24114502 28.43859863 45.23058105 29.05078125 46.25 C29.57325439 47.12140625 30.09572754 47.9928125 30.6340332 48.890625 C31.96006989 51.09952137 31.96006989 51.09952137 34 53 C35.25683594 52.89171875 36.51367188 52.7834375 37.80859375 52.671875 C40.40507994 52.60847448 41.53974429 52.59398818 43.51220703 54.33398438 C44.85949462 56.24613017 45.97390941 58.17995602 47.0625 60.25 C47.46404297 60.93191406 47.86558594 61.61382812 48.27929688 62.31640625 C51.10304072 67.3396466 51.10304072 67.3396466 50.66186523 70.16699219 C50 72 50 72 49 73 C47.61415305 80.93012422 51.65701312 86.23480304 55.80917358 92.65591431 C57.8140276 95.76058393 59.7569537 98.90371899 61.70703125 102.04296875 C62.08841751 102.65379807 62.46980377 103.26462738 62.86274719 103.89396667 C77.25113384 127.03123193 86.56289919 152.11035791 80.97216797 179.65185547 C77.72210085 192.803368 71.14935247 205.05431499 62 215 C61.26265625 215.82886719 60.5253125 216.65773438 59.765625 217.51171875 C49.38911421 228.58338794 35.23232789 237.84955371 20 240 C21.2065625 238.6078125 21.2065625 238.6078125 22.4375 237.1875 C22.98535156 236.54039062 23.53320312 235.89328125 24.09765625 235.2265625 C25.41735981 233.68194027 26.76035177 232.15703174 28.12109375 230.6484375 C45.70249872 210.47705086 50.42431235 186.10287049 49 160 C47.73500089 147.43756808 43.18262011 136.86201494 37 126 C36.46938965 125.0615625 35.9387793 124.123125 35.39208984 123.15625 C30.99143098 115.40031827 26.50201374 107.69739231 22 100 C20.80292438 97.94558107 19.60629507 95.890902 18.41015625 93.8359375 C15.52843707 88.88749416 12.64082707 83.9425187 9.75146484 78.99853516 C7.95363595 75.92062401 6.15811092 72.84137971 4.36328125 69.76171875 C3.76346436 68.73272461 3.16364746 67.70373047 2.5456543 66.64355469 C1.36311063 64.61449948 0.18097133 62.58520854 -1.00073242 60.55566406 C-3.68237764 55.9541829 -6.37445178 51.35986256 -9.1015625 46.78515625 C-9.57303711 45.99230225 -10.04451172 45.19944824 -10.53027344 44.38256836 C-11.40212693 42.91887387 -12.27756362 41.45730547 -13.15722656 39.99829102 C-16 35.2218268 -16 35.2218268 -16 33 C-17.485 33.495 -17.485 33.495 -19 34 C-17.26317698 29.18295494 -14.80591372 24.82951519 -12.3125 20.375 C-11.86841797 19.5804541 -11.42433594 18.7859082 -10.96679688 17.96728516 C-3.11625127 4.0192559 -3.11625127 4.0192559 0 0 Z " fill="#B6EDFD" transform="translate(409,64)"/>
<path d="M0 0 C1.32837891 0.67095703 1.32837891 0.67095703 2.68359375 1.35546875 C9.573361 4.7509178 16.44155635 7.68556966 23.8125 9.875 C24.48015381 10.07762451 25.14780762 10.28024902 25.83569336 10.48901367 C31.17066288 12.00070798 36.48007153 12.5814474 42 13 C42.5903847 43.41238087 39.51285808 70.29685824 26 98 C25.69336426 98.63244629 25.38672852 99.26489258 25.07080078 99.91650391 C18.14384429 114.0038291 9.32631484 126.26490199 -1.58349609 137.53222656 C-3.00475513 139.00492724 -4.40278442 140.49742498 -5.80078125 141.9921875 C-30.98208155 168.49881939 -70.00151456 187.65422662 -106.8125 189.11132812 C-112.87962722 189.23506559 -118.93434253 189.16151159 -125 189 C-122.38904487 187.63178532 -119.85833261 186.56194259 -117.04296875 185.6953125 C-97.31167114 179.37173357 -79.0750165 170.12983567 -63 157 C-62.40396973 156.52062988 -61.80793945 156.04125977 -61.19384766 155.54736328 C-24.8975169 126.18306049 -4.51002799 84.30550854 0.69970703 38.26074219 C1.87151456 25.53662729 1.19531354 12.70020632 0 0 Z " fill="#00DAFA" transform="translate(360,308)"/>
<path d="M0 0 C2.54783457 0.36587614 3.72269767 0.68743083 5.45703125 2.64233398 C5.90433594 3.35719971 6.35164063 4.07206543 6.8125 4.80859375 C7.32683594 5.62569824 7.84117187 6.44280273 8.37109375 7.28466797 C11.3065092 12.17790697 14.17404882 17.10525319 17 22.0625 C17.99372957 23.79535203 18.98746909 25.52819851 19.98194885 27.26062012 C20.65906019 28.44020364 21.33584761 29.61997316 22.01231384 30.79992676 C25.3340618 36.59153297 28.69408383 42.36044973 32.0625 48.125 C32.63548828 49.10605713 33.20847656 50.08711426 33.79882812 51.09790039 C34.95440064 53.07611965 36.11016172 55.05422877 37.26611328 57.03222656 C40.1801084 62.01990957 43.08982568 67.01008705 46 72 C47.16664643 74.0000118 48.33331309 76.00001181 49.5 78 C56.5 90 56.5 90 58.25048828 93.00097656 C59.41536538 94.99781585 60.58040404 96.99456089 61.74560547 98.99121094 C64.69099501 104.0388033 67.63342181 109.0880823 70.5703125 114.140625 C71.1593335 115.15286133 71.74835449 116.16509766 72.35522461 117.20800781 C73.52402355 119.21700695 74.6915297 121.22675884 75.85766602 123.23730469 C78.70683893 128.13410536 81.59751328 132.99681427 84.58203125 137.8125 C85.14712402 138.72999023 85.7122168 139.64748047 86.29443359 140.59277344 C87.36337781 142.32150878 88.44262844 144.04392778 89.53369141 145.75878906 C90.00597168 146.52416992 90.47825195 147.28955078 90.96484375 148.078125 C91.3837085 148.74231445 91.80257324 149.40650391 92.23413086 150.09082031 C93.20926756 152.52166794 92.9016861 153.57293902 92 156 C90.78194072 158.50157503 89.53460289 160.97080472 88.25 163.4375 C83.68663038 172.37009678 80.1396236 181.46798962 77 191 C74.80666292 188.17715774 72.92769506 185.29562198 71.13671875 182.203125 C70.58693359 181.25695312 70.03714844 180.31078125 69.47070312 179.3359375 C68.88224609 178.31757813 68.29378906 177.29921875 67.6875 176.25 C66.42063894 174.06767 65.15370999 171.88537942 63.88671875 169.703125 C63.24009277 168.58744141 62.5934668 167.47175781 61.92724609 166.32226562 C58.96115816 161.20920196 55.98026414 156.10480887 53 151 C51.83197068 148.99743116 50.6640021 146.99482689 49.49609375 144.9921875 C47.17747926 141.01723501 44.85702684 137.04336383 42.53515625 133.0703125 C36.53222941 122.79467443 30.55812212 112.50361437 24.625 102.1875 C18.83531443 92.12495876 12.94239251 82.12748929 7.00732422 72.15014648 C-1.48266198 57.85620675 -9.76048996 43.4395374 -18 29 C-15.7567197 25.10026073 -13.50420909 21.20593059 -11.25 17.3125 C-10.61578125 16.20970703 -9.9815625 15.10691406 -9.328125 13.97070312 C-8.709375 12.90400391 -8.090625 11.83730469 -7.453125 10.73828125 C-6.88754883 9.75899658 -6.32197266 8.77971191 -5.73925781 7.77075195 C-4.00066968 5.00106685 -2.09168712 2.51042525 0 0 Z " fill="#00DAFA" transform="translate(238,15)"/>
<path d="M0 0 C1.08087891 0.05800781 1.08087891 0.05800781 2.18359375 0.1171875 C9.46658736 3.20259366 13.31294605 12.54518743 16.93920898 19.07733154 C18.66972269 22.193547 20.42621133 25.29510378 22.1796875 28.3984375 C22.53959778 29.03685577 22.89950806 29.67527405 23.27032471 30.33303833 C26.77219551 36.53040374 30.38870151 42.65707733 34.03289795 48.77154541 C35.70861535 51.58467252 37.37674068 54.40230572 39.046875 57.21875 C41.08209325 60.64603163 43.12967926 64.06448726 45.203125 67.46875 C54.15301986 82.30186139 57.14776342 97.63224879 53.8671875 114.75390625 C52.95715472 117.68665896 51.89063875 120.35804428 50.5625 123.125 C50.10359375 124.08792969 49.6446875 125.05085938 49.171875 126.04296875 C41.53587963 140.93315972 29.19152457 150.36486274 13.4375 155.8671875 C-1.1810244 159.90943099 -17.24804374 157.01391191 -30.4140625 150.05078125 C-44.87281177 140.84126783 -52.88191743 128.14607091 -57.05859375 111.67578125 C-60.55075569 88.1666911 -49.62578566 70.56507628 -38.04296875 51.1953125 C-34.86373106 45.86831925 -31.76310597 40.49908303 -28.67919922 35.11645508 C-18.88231898 18.02088666 -18.88231898 18.02088666 -13.8125 9.6875 C-13.43520752 9.0495752 -13.05791504 8.41165039 -12.66918945 7.75439453 C-9.54798898 2.71066962 -6.178637 -0.55068066 0 0 Z M-2.4375 21.125 C-2.81334229 21.77645996 -3.18918457 22.42791992 -3.57641602 23.09912109 C-4.10936279 24.02289551 -4.64230957 24.94666992 -5.19140625 25.8984375 C-5.79146484 26.9385498 -6.39152344 27.97866211 -7.00976562 29.05029297 C-8.35087399 31.37485887 -9.69201422 33.69940635 -11.03320312 36.02392578 C-14.19699129 41.50743539 -17.36056547 46.99106744 -20.52244568 52.47567749 C-21.51999722 54.20600688 -22.51768852 55.93625569 -23.51538086 57.66650391 C-24.75992486 59.82489383 -26.00424296 61.98341403 -27.24829102 64.14208984 C-27.82635498 65.14449707 -28.40441895 66.1469043 -29 67.1796875 C-29.56203125 68.15647461 -30.1240625 69.13326172 -30.703125 70.13964844 C-31.90797689 72.21354045 -33.1278539 74.27874694 -34.359375 76.33691406 C-34.98328125 77.38331055 -35.6071875 78.42970703 -36.25 79.5078125 C-36.81332031 80.44254395 -37.37664063 81.37727539 -37.95703125 82.34033203 C-42.81066822 91.46971581 -42.80770773 102.46859314 -40.75 112.46484375 C-37.01900042 123.54902168 -28.69162138 133.06906439 -18.3125 138.5 C-7.51602129 143.29372139 2.21351145 143.29104599 13.3515625 139.5078125 C24.85972154 134.55174401 32.16677203 126.23847838 36.9375 114.8125 C40.99612722 104.1365458 40.6684316 93.97847469 36.21484375 83.4921875 C33.86368304 78.70093328 31.15942126 74.18902647 28.34375 69.6640625 C24.81192627 63.96545968 21.51818927 58.13001467 18.1875 52.3125 C13.60001718 44.34010076 8.99654305 36.3790041 4.25 28.5 C3.80027832 27.74227295 3.35055664 26.9845459 2.88720703 26.20385742 C1.83552094 24.47520744 0.70718481 22.79352362 -0.4375 21.125 C-1.0975 21.125 -1.7575 21.125 -2.4375 21.125 Z " fill="#000001" transform="translate(62.4375,16.875)"/>
<path d="M0 0 C8.84563631 7.13702246 14.1213151 16.12120599 16.75 27.1875 C16.93334464 29.88104852 17.03824266 32.43901568 17 35.125 C16.98658569 36.18920166 16.98658569 36.18920166 16.97290039 37.27490234 C16.70998883 49.10183572 12.17673814 60.87872373 4.0625 69.6875 C-3.97817649 76.99006751 -13.74810775 80.60884231 -24.5 80.46484375 C-35.90999549 79.31411977 -44.55221006 72.80269166 -51.71484375 64.26953125 C-54.04634395 61.10747118 -55.70962996 57.78947641 -57.25 54.1875 C-57.641875 53.32125 -58.03375 52.455 -58.4375 51.5625 C-62.36909823 40.07013594 -61.48313893 26.05632702 -56.25 15.1875 C-51.27254297 6.34155305 -43.91106906 -2.07981423 -34.25 -5.8125 C-21.92693102 -8.84453806 -10.35924718 -7.27683465 0 0 Z " fill="#010404" transform="translate(214.25,220.8125)"/>
<path d="M0 0 C10.79570228 6.93115378 18.21795654 17.40340488 21 30 C22.34811381 43.81219386 21.07619303 56.51553453 12.625 68 C11.44795674 69.36103504 10.24103405 70.69704885 9 72 C8.21689453 72.84304688 8.21689453 72.84304688 7.41796875 73.703125 C-0.12930441 80.97495024 -9.75329964 83.78150181 -20.05615234 83.6640625 C-27.00684014 83.27689334 -32.28109053 80.79798742 -38 77 C-38.67546875 76.55527344 -39.3509375 76.11054688 -40.046875 75.65234375 C-48.39045254 69.32082362 -53.56043676 58.80520806 -55.6875 48.75 C-56.93526138 33.77686343 -54.84373033 20.71364917 -45.1484375 8.70703125 C-33.16877503 -4.01241117 -15.86560235 -8.35651163 0 0 Z " fill="#010304" transform="translate(304,332)"/>
<path d="M0 0 C3.4375 0.9375 3.4375 0.9375 5.375 2.0625 C7.04787577 5.0146337 6.92295281 7.67340778 6.4375 10.9375 C5.0808581 15.13491924 3.31786701 19.14344013 1.5625 23.1875 C1.02483655 24.45192768 0.48850387 25.7169219 -0.04663086 26.98242188 C-1.23079491 29.77908508 -2.4213982 32.57289591 -3.61572266 35.36523438 C-5.66903153 40.17561295 -7.68658748 45.00061128 -9.69921875 49.828125 C-10.42576624 51.57023738 -11.15232898 53.3123434 -11.87890625 55.05444336 C-12.24677246 55.9364743 -12.61463867 56.81850525 -12.99365234 57.7272644 C-18.04733738 69.83377914 -23.13055329 81.92791252 -28.23828125 94.01171875 C-28.62518127 94.92707901 -29.0120813 95.84243927 -29.41070557 96.78553772 C-30.97573773 100.48737503 -32.54112453 104.18906009 -34.10845947 107.8899231 C-38.80750532 118.98583631 -43.46641114 130.09699627 -48.06640625 141.234375 C-48.98320863 143.45028788 -49.9000378 145.66618968 -50.81689453 147.88208008 C-52.57373887 152.12900896 -54.32206863 156.37931333 -56.06591797 160.6315918 C-56.86525536 162.56571833 -57.66488221 164.49972528 -58.46484375 166.43359375 C-58.9995504 167.74762177 -58.9995504 167.74762177 -59.5450592 169.0881958 C-61.48044568 173.74556842 -63.42565318 177.96551609 -66.5625 181.9375 C-70 183.125 -70 183.125 -73.5625 182.9375 C-76.5625 181 -76.5625 181 -78.5625 177.9375 C-78.26032166 172.45496945 -77.12433634 168.23640871 -74.88671875 163.1875 C-74.61005875 162.55365387 -74.33339874 161.91980774 -74.0483551 161.26675415 C-73.44397891 159.88434202 -72.83503795 158.50391847 -72.2220459 157.12530518 C-70.49896791 153.24713548 -68.81285026 149.35284632 -67.12109375 145.4609375 C-66.75577545 144.62291595 -66.39045715 143.78489441 -66.0140686 142.92147827 C-61.49022433 132.52011304 -57.15818846 122.03919646 -52.8125 111.5625 C-51.1053329 107.45263964 -49.39679433 103.34335107 -47.6875 99.234375 C-47.26231583 98.21225922 -46.83713165 97.19014343 -46.39906311 96.13705444 C-41.13400658 83.49129653 -35.80552732 70.87230206 -30.4597168 58.26049805 C-26.97690644 50.04109114 -23.50369416 41.81868544 -20.09432983 33.56848145 C-18.62395013 30.01040483 -17.14701948 26.45506196 -15.67004395 22.89971924 C-14.98097075 21.23498891 -14.29542123 19.56879505 -13.61364746 17.90106201 C-12.67958151 15.61650063 -11.73368056 13.33718201 -10.78515625 11.05859375 C-10.51621048 10.39106583 -10.24726471 9.7235379 -9.97016907 9.03578186 C-7.76623912 3.79451459 -6.0631652 -0.10637132 0 0 Z " fill="#010404" transform="translate(275.5625,221.0625)"/>
<path d="M0 0 C6.37914611 4.23270387 10.39634039 10.32128598 12.75 17.5625 C13.82605336 28.39810711 12.8509633 38.64615945 6 47.5 C1.12965164 52.55253097 -3.79603751 54.76454063 -10.8125 55.0625 C-18.07450979 54.74196991 -21.96561459 52.11904481 -26.9375 47 C-32.77289048 39.8897607 -35.05118361 31.7512126 -34.6953125 22.6171875 C-33.51871851 14.54616554 -30.21614411 7.32767545 -24.05859375 1.8984375 C-16.52528972 -3.66611969 -8.19533119 -4.43657027 0 0 Z " fill="#66E4FA" transform="translate(297.25,345.4375)"/>
<path d="M0 0 C6.82977085 3.07207839 10.9493697 8.33884773 14.0234375 15.03515625 C16.89245185 22.88908303 16.95049602 32.56982173 13.6484375 40.34765625 C10.00562132 46.96195391 5.80354757 52.4093894 -1.3515625 55.34765625 C-7.91420277 56.18819146 -14.44133923 56.72280125 -19.9765625 52.66015625 C-21.13712296 51.59342834 -22.26760419 50.49214015 -23.3515625 49.34765625 C-24.0940625 48.62578125 -24.8365625 47.90390625 -25.6015625 47.16015625 C-30.98313558 38.51119952 -32.82701089 29.45053566 -31.3515625 19.34765625 C-28.52713788 10.79454 -24.14314252 4.86659095 -16.5 0.22265625 C-11.46712059 -1.82709827 -5.17156178 -1.43463591 0 0 Z " fill="#67E4FA" transform="translate(200.3515625,229.65234375)"/>
</svg>
