<?xml version="1.0" encoding="UTF-8"?>
<svg version="1.1" xmlns="http://www.w3.org/2000/svg" width="512" height="512">
<path d="M0 0 C15.46607466 4.97915686 27.19247988 4.33073285 42.54907227 -0.73120117 C61.88162959 -6.92975655 79.75059458 -6.25791669 98.94995117 0.00048828 C116.11644512 5.5506932 128.21847385 3.88363372 145.2043457 -1.66821289 C163.14968261 -7.51095366 180.92235089 -6.07431671 198.58764648 0.00048828 C215.4174438 5.75126294 227.50894071 3.78823895 244.2043457 -1.66821289 C262.39853291 -7.59197569 280.04606059 -5.80705548 297.99633789 0.00048828 C313.68611475 5.04150589 324.79670278 4.48915246 340.30322266 -0.86816406 C347.40404879 -3.28341522 354.20733686 -5.09819332 361.3215332 -1.85961914 C365.28543477 0.7860547 367.23100095 4.09542592 368.5090332 8.64038086 C369.23552557 13.92055732 369.15367683 18.16307254 367.0090332 23.07788086 C361.36550456 28.86249772 353.17068058 30.9224891 345.6340332 33.26538086 C344.70461914 33.56444336 343.77520508 33.86350586 342.81762695 34.17163086 C321.18954941 40.98884916 303.75614179 37.86768543 282.66137695 30.94506836 C267.88288819 26.18114434 255.85167573 30.3010648 241.5090332 34.64038086 C224.06741291 39.83859302 207.62165201 38.28142679 190.36450195 33.10522461 C171.87534439 27.5614314 160.82796008 28.95952084 142.5090332 34.64038086 C140.69605069 35.19514966 138.8822691 35.74731502 137.06762695 36.29663086 C136.27283936 36.53833008 135.47805176 36.7800293 134.65917969 37.02905273 C118.41662719 41.64712375 102.44788494 36.78231867 86.99316406 31.71020508 C71.91349626 26.76206573 60.84395719 29.44927866 45.97680664 33.90942383 C26.15762044 39.77988717 9.20668405 38.15949998 -10.38818359 32.28051758 C-26.80591745 27.41078989 -36.79065045 29.0392297 -53.02758789 33.90942383 C-74.77707699 40.36313744 -93.67082821 37.80031346 -114.7409668 30.64038086 C-115.44431152 30.40367676 -116.14765625 30.16697266 -116.87231445 29.9230957 C-121.80416863 28.15529864 -125.80948898 26.14731142 -128.7800293 21.71850586 C-130.69774126 16.11288628 -130.28942551 9.60370057 -127.9284668 4.20288086 C-125.57044347 0.18764534 -122.86999655 -1.8683651 -118.4909668 -3.35961914 C-111.26121182 -4.35894924 -105.11926214 -2.19145676 -98.3659668 0.14038086 C-81.42289991 5.52581261 -70.15996419 3.75389382 -53.38549805 -1.63305664 C-35.13777049 -7.30093454 -17.95216968 -5.80527406 0 0 Z " fill="#BDEBFA" transform="translate(136.490966796875,95.359619140625)"/>
<path d="M0 0 C0.8556958 0.27118652 1.7113916 0.54237305 2.59301758 0.82177734 C4.24292043 1.35477226 5.88683087 1.90691027 7.5222168 2.48291016 C19.95892693 6.55870963 31.35343981 4.39947263 43.5390625 0.52734375 C45.9531903 -0.2149717 48.36852272 -0.95338308 50.78515625 -1.6875 C51.83243896 -2.01741943 52.87972168 -2.34733887 53.95874023 -2.68725586 C68.97702418 -6.7390309 84.41440159 -4.66093919 99 0 C99.8556958 0.27118652 100.7113916 0.54237305 101.59301758 0.82177734 C103.24292043 1.35477226 104.88683087 1.90691027 106.5222168 2.48291016 C118.95892693 6.55870963 130.35343981 4.39947263 142.5390625 0.52734375 C144.9531903 -0.2149717 147.36852272 -0.95338308 149.78515625 -1.6875 C150.83243896 -2.01741943 151.87972168 -2.34733887 152.95874023 -2.68725586 C167.97702418 -6.7390309 183.41440159 -4.66093919 198 0 C198.8556958 0.27118652 199.7113916 0.54237305 200.59301758 0.82177734 C202.24292043 1.35477226 203.88683087 1.90691027 205.5222168 2.48291016 C217.95892693 6.55870963 229.35343981 4.39947263 241.5390625 0.52734375 C243.9531903 -0.2149717 246.36852272 -0.95338308 248.78515625 -1.6875 C249.83243896 -2.01741943 250.87972168 -2.34733887 251.95874023 -2.68725586 C268.05913651 -7.03097343 284.04125723 -4.16544229 299.56567383 0.82470703 C316.83693783 6.32593648 329.21433337 4.20502494 346.1015625 -1.53515625 C351.87950032 -3.46113552 357.95384249 -3.47234316 363.5390625 -1.03515625 C368.42887072 3.73538835 370.32227115 8.24720572 370.6015625 15.08984375 C370.38554379 19.97051647 369.60892403 22.86979818 366.1015625 26.46484375 C360.05116947 29.82617321 353.88173912 32.03048657 347.2890625 34.08984375 C346.36802734 34.38890625 345.44699219 34.68796875 344.49804688 34.99609375 C322.52203367 41.94721899 304.34450468 38.71383879 283.08349609 31.08154297 C271.2857257 27.4105442 260.19992713 29.78210734 248.7265625 33.40234375 C246.30332788 34.14469975 243.87888087 34.88311198 241.453125 35.6171875 C240.39947754 35.94710693 239.34583008 36.27702637 238.26025391 36.61694336 C221.85158751 41.02158847 205.42715908 38.16185665 189.58886719 33.10498047 C173.35305244 27.96111019 162.32612192 29.50134849 146.34521484 34.73828125 C123.94954913 41.99067528 105.88646797 38.37282995 84.06176758 31.08154297 C72.56594721 27.4648482 61.94631487 29.86213062 50.7265625 33.40234375 C48.30332788 34.14469975 45.87888087 34.88311198 43.453125 35.6171875 C42.39947754 35.94710693 41.34583008 36.27702637 40.26025391 36.61694336 C23.84993333 41.0220325 7.42830472 38.15977001 -8.41186523 33.10522461 C-23.45274071 28.33719537 -34.10729298 28.98773849 -48.94921875 33.83642578 C-51.62228287 34.69820773 -54.31639332 35.46743183 -57.0234375 36.21484375 C-57.80976562 36.4365625 -58.59609375 36.65828125 -59.40625 36.88671875 C-77.20424994 41.01540839 -94.01658882 37.52857002 -111.0234375 32.02734375 C-112.37538208 31.5950647 -112.37538208 31.5950647 -113.75463867 31.15405273 C-119.23523311 29.30651618 -123.83846143 27.5360808 -127.1875 22.54296875 C-129.11289941 16.91487816 -128.70331184 10.42368968 -126.2734375 5.02734375 C-124.06085126 1.29886798 -121.94751513 -0.76828601 -117.8984375 -2.53515625 C-109.12262949 -4.31214047 -101.06246397 -0.89003714 -92.9375 2.0546875 C-78.46562571 7.24421375 -66.32372051 3.68592635 -52.265625 -0.84375 C-34.78671472 -6.45616121 -17.38949836 -5.5569468 0 0 Z " fill="#BDEBFA" transform="translate(134.8984375,382.53515625)"/>
<path d="M0 0 C0.89912109 0.27118652 1.79824219 0.54237305 2.72460938 0.82177734 C4.46762554 1.35618082 6.20529485 1.90852321 7.93554688 2.48291016 C20.58091272 6.39941983 31.87415862 4.47368075 44.24609375 0.52734375 C66.18723413 -6.26619651 85.17198507 -5.30515177 106.6640625 2.37890625 C119.78020749 6.82018312 131.20287886 4.22520508 143.99145508 0.13085938 C163.73251037 -6.15595522 181.81062963 -5.47088144 201.41064453 0.82446289 C216.64605009 5.70295772 227.86111853 5.00322947 242.890625 0.09326172 C262.57013617 -6.15119856 280.84791258 -5.48737473 300.35839844 0.82495117 C316.01080944 5.85396339 327.1154524 5.34508436 342.57739258 -0.04370117 C349.07319294 -2.26083064 356.41493704 -4.53647879 363.02050781 -1.56982422 C366.60815803 0.63155482 369.01563395 3.32495233 370.43359375 7.375 C371.64407023 13.15718677 371.74724353 18.45700051 369.37109375 23.90234375 C363.20713757 30.22039883 354.0278181 32.17868673 345.80859375 34.65234375 C344.66326172 35.00748047 343.51792969 35.36261719 342.33789062 35.72851562 C323.38486049 41.50540798 307.69059663 38.94225837 289.15844727 33.03466797 C272.95853165 27.92627125 262.35437056 29.88999154 246.32275391 34.73388672 C224.40555696 41.26845032 205.90043365 38.22049701 184.60546875 31.296875 C171.27593767 27.24088912 160.13241369 30.77800846 147.24951172 34.73828125 C126.32604417 41.13001184 109.91902514 39.28353991 89.35522461 32.53466797 C88.58573486 32.28217285 87.81624512 32.02967773 87.0234375 31.76953125 C86.34273193 31.54249512 85.66202637 31.31545898 84.96069336 31.08154297 C74.2389418 27.91725456 64.79281429 29.61195911 54.30859375 32.83984375 C43.93038809 35.94762049 34.02791315 38.86267709 23.12109375 38.77734375 C22.34161377 38.7717041 21.56213379 38.76606445 20.7590332 38.76025391 C11.70096434 38.57287757 3.40247902 36.54164233 -5.2421875 33.9296875 C-6.15186279 33.65850098 -7.06153809 33.38731445 -7.9987793 33.10791016 C-9.77772617 32.57162506 -11.5518732 32.01902387 -13.31958008 31.44677734 C-25.49002971 27.72780101 -35.55550428 29.67245306 -47.50390625 33.40234375 C-49.94838904 34.14336759 -52.39367542 34.88174686 -54.83984375 35.6171875 C-55.90509277 35.94710693 -56.9703418 36.27702637 -58.06787109 36.61694336 C-75.7690231 41.52012576 -93.1853133 37.50477079 -110.19140625 32.02734375 C-111.09673096 31.73915771 -112.00205566 31.45097168 -112.93481445 31.15405273 C-118.43914134 29.30930082 -123.05515831 27.5566134 -126.41796875 22.54296875 C-128.34336816 16.91487816 -127.93378059 10.42368968 -125.50390625 5.02734375 C-123.30857924 1.31510675 -121.13779809 -0.75342654 -117.12890625 -2.53515625 C-109.47968075 -3.50592817 -103.08948312 -1.52351384 -95.94140625 0.96484375 C-77.65494311 6.77345089 -65.56463487 3.8968904 -47.5078125 -1.6875 C-31.47253441 -6.53805799 -15.84109605 -4.8252793 0 0 Z " fill="#BDEBFA" transform="translate(134.12890625,238.53515625)"/>
<path d="M0 0 C12.48772836 4.2284878 24.38125603 2.04524141 36.64453125 -1.8515625 C39.05865905 -2.59387795 41.47399147 -3.33228933 43.890625 -4.06640625 C44.93790771 -4.39632568 45.98519043 -4.72624512 47.06420898 -5.06616211 C61.99219472 -9.09357565 77.64625717 -6.98794442 92.17578125 -2.37890625 C93.03220215 -2.10771973 93.88862305 -1.8365332 94.77099609 -1.55712891 C96.41368805 -1.02438934 98.05029988 -0.47229092 99.67822266 0.10400391 C112.06975278 4.19158618 123.44230018 2.02070723 135.58203125 -1.8515625 C155.83364769 -8.12198278 173.51440515 -8.05997497 193.74487305 -1.55395508 C209.30341032 3.42178172 219.85130097 2.69676499 235.33105469 -2.24682617 C258.10704177 -9.51860925 277.60067638 -6.55569567 299.91186523 0.57250977 C305.28777009 2.27681476 310.57190094 3.66177715 316.13208008 4.62280273 C319.46636117 5.36702338 320.99636448 6.48515306 323.20703125 9.0859375 C326.32891577 14.63928978 327.95242333 19.69974223 326.80859375 26.046875 C325.36777874 30.93067653 323.33649801 33.43432206 318.95703125 35.9609375 C304.8444095 40.19472402 288.58615111 33.18568377 275.16723633 28.70263672 C263.65582637 25.08103732 253.00800812 27.4906546 241.76953125 31.0234375 C239.33415269 31.7644171 236.89798072 32.50279512 234.4609375 33.23828125 C233.40205322 33.56820068 232.34316895 33.89812012 231.25219727 34.23803711 C216.08764979 38.46047545 200.04353022 36.23094978 185.28125 31.55078125 C184.41991455 31.27959473 183.5585791 31.0084082 182.67114258 30.72900391 C181.00693064 30.1951379 179.34845056 29.64286745 177.69799805 29.06787109 C165.52474686 25.09400508 154.77387944 27.2553786 142.83203125 31.0234375 C140.40879663 31.7657935 137.98434962 32.50420573 135.55859375 33.23828125 C134.50494629 33.56820068 133.45129883 33.89812012 132.36572266 34.23803711 C115.81813408 38.67997366 99.76378397 35.76929778 83.81640625 30.70703125 C82.72102539 30.36514771 82.72102539 30.36514771 81.60351562 30.01635742 C80.23921182 29.58388305 78.88018737 29.13408597 77.52929688 28.66137695 C65.96271056 24.93498305 55.09040991 27.47103647 43.83203125 31.0234375 C41.40879663 31.7657935 38.98434962 32.50420573 36.55859375 33.23828125 C35.50494629 33.56820068 34.45129883 33.89812012 33.36572266 34.23803711 C17.81418095 38.41260075 2.21015885 36.12016822 -12.91015625 31.55078125 C-30.39548837 26.27189557 -41.21789628 26.72882534 -58.53320312 32.359375 C-80.32922685 39.36725817 -80.32922685 39.36725817 -89.98046875 35.9609375 C-94.04128181 33.25372879 -97.0078992 30.68678142 -98.4296875 25.9765625 C-99.54261661 19.03571429 -97.6857365 13.98818139 -93.91796875 8.2109375 C-90.25881667 4.55178542 -85.94506363 3.82890874 -80.98046875 2.8984375 C-72.92174095 1.24733934 -65.09962469 -1.09567281 -57.2331543 -3.48901367 C-37.48628561 -9.42609631 -19.0438522 -6.80874456 0 0 Z " fill="#9EE2F8" transform="translate(141.79296875,312.9140625)"/>
<path d="M0 0 C17.0653007 5.46586372 28.85542438 3.76954494 45.6887207 -1.63354492 C65.88029281 -7.9010008 84.8610109 -5.42331387 104.3762207 1.55395508 C117.77087373 6.08953796 129.42567828 3.14700248 142.4543457 -0.82495117 C163.79485498 -7.32538002 182.65195978 -5.85558566 203.3762207 1.55395508 C217.84629717 6.45368864 230.29124189 2.85591926 244.2434082 -1.66870117 C265.06469023 -8.40191562 284.41706973 -4.7560702 304.60644531 2.12646484 C310.12735356 3.98370549 315.50536633 5.28912333 321.26586914 6.17675781 C324.75146218 6.87336232 326.31802428 7.89416206 328.58325195 10.63989258 C331.92963936 16.5149007 333.2513934 21.73185554 332.1887207 28.44458008 C330.96499646 32.88156735 328.64428425 34.90727504 324.95825195 37.45239258 C311.67902486 42.12471322 295.03940022 35.05245193 282.35498047 30.65893555 C272.56164953 27.37703117 264.98047817 27.21076226 255.14575195 30.38989258 C253.30207642 30.9513351 251.45832715 31.51253552 249.61450195 32.07348633 C248.74438477 32.34531738 247.87426758 32.61714844 246.9777832 32.8972168 C244.04865172 33.8057015 241.1039102 34.64377514 238.14575195 35.45239258 C237.38391602 35.66508789 236.62208008 35.8777832 235.8371582 36.09692383 C219.25421136 40.09177584 203.86685356 36.97876136 187.90356445 32.26098633 C171.59121889 27.45776586 161.24934281 29.04944032 145.05102539 33.90893555 C126.44212549 39.42091084 109.93008247 38.65331673 91.43481445 33.10473633 C90.52062744 32.8335498 89.60644043 32.56236328 88.66455078 32.28295898 C86.87296451 31.7455305 85.08587153 31.19278519 83.3046875 30.62182617 C72.1186818 27.21678329 63.04799373 28.61982242 52.02075195 32.01489258 C41.6425463 35.12266932 31.74007135 38.03772591 20.83325195 37.95239258 C20.05377197 37.94675293 19.27429199 37.94111328 18.47119141 37.93530273 C9.40133315 37.74768252 1.09488693 35.70275807 -7.56518555 33.10473633 C-23.4299105 28.35024796 -33.33872367 27.79414942 -49.41674805 32.63989258 C-51.68883367 33.31531038 -53.96147972 33.98878186 -56.23461914 34.66064453 C-57.69355328 35.09400859 -59.15101383 35.53237596 -60.60668945 35.9765625 C-68.74146474 38.42793785 -77.59601289 40.57796405 -85.72924805 37.13989258 C-89.35080033 35.06836467 -91.25472762 32.75503539 -92.85424805 28.91333008 C-94.33188176 22.94122715 -93.22553895 17.50427096 -90.22924805 12.20239258 C-87.47549967 7.79086925 -83.40150879 6.13739892 -78.47143555 4.90161133 C-77.42213867 4.71211914 -76.3728418 4.52262695 -75.29174805 4.32739258 C-69.15270172 3.10478589 -63.26622927 1.43802152 -57.29174805 -0.42260742 C-37.28227981 -6.5654226 -19.96358688 -6.46945047 0 0 Z " fill="#9EE2F8" transform="translate(136.416748046875,167.360107421875)"/>
</svg>
