<?xml version="1.0" encoding="UTF-8"?>
<svg version="1.1" xmlns="http://www.w3.org/2000/svg" width="512" height="512">
<path d="M0 0 C26.61871488 23.21365124 45.01076625 56.7574143 47.6640625 92.32421875 C47.79306707 96.52859507 47.85129844 100.73126388 47.875 104.9375 C47.87983398 105.76314453 47.88466797 106.58878906 47.88964844 107.43945312 C47.8781446 111.4657977 47.75407195 115.19636929 46.75 119.125 C47.28625 119.1765625 47.8225 119.228125 48.375 119.28125 C60.61534055 121.05287824 72.68673549 127.86545895 81.75 136.125 C82.55695313 136.84042969 83.36390625 137.55585938 84.1953125 138.29296875 C98.4822174 151.68421142 108.37406407 170.70572439 109.18359375 190.45703125 C109.2072833 192.61705799 109.20811186 194.7774417 109.1875 196.9375 C109.17847656 198.07751465 109.16945313 199.2175293 109.16015625 200.39208984 C108.7851697 218.69612077 102.21547475 236.4796655 89.75 250.125 C88.99976563 250.95515625 88.24953125 251.7853125 87.4765625 252.640625 C81.81286156 258.60805754 75.90536582 263.09235163 68.75 267.125 C67.96109375 267.58648437 67.1721875 268.04796875 66.359375 268.5234375 C55.61292198 274.39484395 42.0304359 277.99764079 29.75 277.125 C26.90234375 275.796875 26.90234375 275.796875 24.75 274.125 C23.9375 271.4375 23.9375 271.4375 23.75 269.125 C22.14125 269.2178125 22.14125 269.2178125 20.5 269.3125 C12.74608938 269.32629699 4.98547465 266.73781029 -2.25 264.125 C-3.57 266.105 -4.89 268.085 -6.25 270.125 C-5.76273437 270.34671875 -5.27546875 270.5684375 -4.7734375 270.796875 C0.72556284 273.55637335 5.15966671 277.02651304 9.75 281.0625 C19.45431262 289.56347786 26.84659482 295.55832923 40.1875 295.0625 C50.27276613 294.02841165 55.78938561 289.23614068 63.02734375 282.53515625 C74.35634646 272.50646949 85.78041932 266.76103344 101.19140625 266.59375 C104.48588283 267.27779399 105.67416884 268.52549325 107.75 271.125 C108.90711808 274.75063666 109.0851709 276.38762402 107.5 279.875 C105.2553704 282.76095234 103.60491972 283.99550304 99.96484375 284.546875 C98.88332031 284.65515625 97.80179687 284.7634375 96.6875 284.875 C86.84702429 286.3227691 80.96435453 290.84248956 73.875 297.5625 C63.26450228 307.59661663 51.80173695 312.96760359 37 313.4375 C35.58112253 313.36981043 34.16351864 313.26557091 32.75 313.125 C31.99847656 313.05539062 31.24695313 312.98578125 30.47265625 312.9140625 C17.84217807 311.07169129 8.37977565 304.33409287 -0.49609375 295.71875 C-6.37754019 290.17934513 -12.81604124 285.53894423 -21.0703125 284.91015625 C-24.73410497 285.1577098 -26.74982943 286.1501431 -29.9375 287.9375 C-33.94333119 290.07658415 -37.43141894 291.52987493 -41.875 292.4375 C-47.56559437 293.80912102 -50.65459509 296.82419063 -54.78125 300.83984375 C-64.04893057 309.41831389 -76.25762305 313.57994907 -88.82421875 313.3359375 C-103.36157813 312.07181929 -112.42076181 306.93485135 -122.85327148 297.18505859 C-128.91885966 291.2149957 -128.91885966 291.2149957 -136.25 287.125 C-138.65781284 287.32913057 -140.39889959 288.01052919 -142.609375 288.984375 C-145.88400887 290.39886182 -149.18283247 291.31629464 -152.625 292.25 C-153.27170654 292.42797119 -153.91841309 292.60594238 -154.5847168 292.78930664 C-158.50314623 293.82099065 -162.14666289 294.31947833 -166.1875 294.4375 C-171.34541917 294.76414289 -173.56558461 296.57591845 -177.16015625 300.1484375 C-186.96570172 309.42246742 -199.32330686 313.56327416 -212.66796875 313.3359375 C-226.54798548 312.20201783 -235.67567232 306.70670834 -245.671875 297.44921875 C-253.31281067 290.30757788 -253.31281067 290.30757788 -262.75 286.5 C-268.53614002 287.52415144 -268.53614002 287.52415144 -274.30078125 288.66015625 C-277.25 289.125 -277.25 289.125 -280.16796875 289.05859375 C-286.3194882 288.93670103 -289.70307503 290.02141637 -294.16162109 294.12963867 C-295.81480932 295.75226663 -297.4505644 297.39071016 -299.08203125 299.03515625 C-308.59910156 308.58699211 -320.24288349 312.93927082 -333.5625 313.3125 C-347.2422768 313.05831496 -357.90107817 307.79263519 -367.74609375 298.4375 C-375.4837484 291.29133533 -383.27610378 285.53057581 -393.9375 284.6875 C-396.97246073 284.39870616 -398.4888952 284.0079901 -401.3125 282.625 C-403.80224374 279.41242743 -403.98472122 277.24940935 -403.71484375 273.25390625 C-403.25 271.125 -403.25 271.125 -401.4375 268.5625 C-393.50930441 264.98703925 -385.24375595 267.18496699 -377.31640625 269.87109375 C-369.54895309 273.04733893 -363.91016494 278.26045714 -357.79296875 283.875 C-350.21734203 290.57785866 -344.02226605 294.49793833 -333.875 295.4375 C-323.60087403 294.55179949 -316.31621205 290.60687158 -309.25 283.125 C-315.53313451 278.07789195 -319.18606525 275.57829256 -327.25 276.125 C-330.94429416 274.6644651 -332.40097571 272.95253008 -334.3671875 269.66015625 C-337.42075605 265.3175652 -340.66002398 264.63421729 -345.6875 263.625 C-364.67099205 259.07142955 -381.22181277 248.17192896 -392.0625 231.6875 C-399.81498849 218.69980164 -403.83907148 205.99569924 -403.6875 190.8125 C-403.67847656 189.72018066 -403.66945313 188.62786133 -403.66015625 187.50244141 C-403.21761772 166.7615209 -394.58361686 149.1640241 -379.796875 134.73046875 C-364.00720359 120.85541319 -344.88517625 115.66731738 -324.25 115.125 C-324.27094727 114.54234375 -324.29189453 113.9596875 -324.31347656 113.359375 C-325.05821814 89.37681087 -320.33359888 68.71625676 -304.25 50.125 C-290.3993447 35.60135048 -271.76919902 25.57012707 -251.46484375 24.7890625 C-249.37256531 24.75941885 -247.27998622 24.74695999 -245.1875 24.75 C-243.54128662 24.75132935 -243.54128662 24.75132935 -241.86181641 24.75268555 C-230.087338 24.92291689 -220.00745771 27.3484698 -209.25 32.125 C-208.91379639 31.67286133 -208.57759277 31.22072266 -208.23120117 30.75488281 C-183.43461539 -2.46437622 -152.27884636 -26.05497387 -110.28540039 -32.16064453 C-70.20274955 -37.22476518 -30.81816191 -26.05873056 0 0 Z M-231.25 260.125 C-232.34388904 261.45393957 -233.39926252 262.81464293 -234.4375 264.1875 C-237.58103988 268.29228761 -240.8517067 272.22939548 -244.25 276.125 C-229.76252497 290.27616569 -229.76252497 290.27616569 -211.0625 296.375 C-204.42477638 295.93973943 -198.44360713 294.38733964 -193.25 290.125 C-193.82105469 289.94066406 -194.39210937 289.75632812 -194.98046875 289.56640625 C-209.25442496 284.46046007 -221.16181417 274.6514469 -229.12109375 261.8125 C-229.49363281 261.255625 -229.86617187 260.69875 -230.25 260.125 C-230.58 260.125 -230.91 260.125 -231.25 260.125 Z M-113.25 265.125 C-114.6802165 266.57244802 -116.04721162 268.0830522 -117.375 269.625 C-118.09945313 270.4603125 -118.82390625 271.295625 -119.5703125 272.15625 C-120.12460937 272.8059375 -120.67890625 273.455625 -121.25 274.125 C-119.97867494 277.93897517 -118.263538 278.96173229 -115.125 281.4375 C-111.8773884 284.00887371 -108.74258754 286.57629435 -105.75 289.4375 C-100.69945289 293.78557293 -93.83463668 296.25301793 -87.1875 296.5625 C-82.30364424 296.01984936 -77.88408144 294.72033951 -73.25 293.125 C-76.36014243 291.49272667 -79.53221976 290.24921458 -82.8125 289 C-94.2442945 284.25183688 -105.11305722 276.03512049 -111.25 265.125 C-111.91 265.125 -112.57 265.125 -113.25 265.125 Z " fill="#C8D7EE" transform="translate(403.25,38.875)"/>
<path d="M0 0 C10.67932961 9.27003392 19.2974371 19.37458239 26.66503906 31.4453125 C27.32890625 32.53199219 27.99277344 33.61867187 28.67675781 34.73828125 C34.69753859 45.58691422 33.11446398 54.39976312 29.9987793 65.90576172 C24.3217576 85.4720657 15.29534944 104.2114362 1.66503906 119.4453125 C0.89933594 120.31929687 0.13363281 121.19328125 -0.65527344 122.09375 C-25.04916884 149.6299099 -58.35088868 167.51394454 -95.33496094 170.4453125 C-99.22705666 170.57791624 -103.11511298 170.57627422 -107.00917053 170.56556702 C-108.15617146 170.56642144 -109.3031724 170.56727587 -110.48493093 170.56815618 C-114.31264258 170.56979795 -118.14031 170.56431099 -121.96801758 170.55883789 C-124.71807889 170.5579981 -127.46813936 170.55867037 -130.21820068 170.5592804 C-136.13086972 170.55980352 -142.04352768 170.55667887 -147.95619392 170.55104256 C-156.50480664 170.54289883 -165.05341403 170.54030939 -173.60203021 170.53905457 C-187.47321523 170.53686856 -201.34439435 170.53022071 -215.21557617 170.52075195 C-228.686279 170.51156616 -242.15698022 170.50449104 -255.62768555 170.50024414 C-256.4586928 170.49998142 -257.28970006 170.49971869 -258.14588935 170.49944801 C-262.31500951 170.49814293 -266.48412968 170.49687923 -270.65324986 170.49563611 C-305.21382442 170.48527754 -339.77439213 170.4676715 -374.33496094 170.4453125 C-374.20708851 169.02857641 -374.0706255 167.6126144 -373.93066406 166.19702148 C-373.85561646 165.40843246 -373.78056885 164.61984344 -373.70324707 163.80735779 C-373.11368641 160.026143 -371.59336092 156.87602118 -369.83496094 153.5078125 C-369.48038818 152.8176001 -369.12581543 152.1273877 -368.76049805 151.41625977 C-361.45076953 137.75066238 -349.08884094 127.21685389 -334.30371094 122.47265625 C-325.1616805 120.08729637 -315.1828466 118.87270231 -305.95996094 121.5078125 C-301.576409 122.64148972 -298.753042 122.23425555 -294.33496094 121.4453125 C-292.40705296 115.66158856 -293.35001966 111.04985259 -295.33496094 105.4453125 C-298.35625116 87.51179696 -295.30961569 71.71104148 -285.33496094 56.4453125 C-282.54457028 52.8746002 -279.56373611 49.62201065 -276.33496094 46.4453125 C-275.76003906 45.87167969 -275.18511719 45.29804687 -274.59277344 44.70703125 C-265.44466779 36.23737363 -251.84082544 29.93097714 -239.33496094 29.4453125 C-238.12582031 29.39375 -236.91667969 29.3421875 -235.67089844 29.2890625 C-222.80772894 28.91313564 -213.2084555 31.48950158 -202.07910156 37.83984375 C-198.55818542 39.75392254 -196.64654903 40.44787175 -192.53027344 40.4140625 C-188.9976039 39.3430331 -188.21683593 38.84161151 -186.45996094 35.6953125 C-185.97140625 34.88191406 -185.48285156 34.06851563 -184.97949219 33.23046875 C-184.43679687 32.31136719 -183.89410156 31.39226562 -183.33496094 30.4453125 C-164.73409332 1.75831627 -138.15833262 -18.30261186 -104.57324219 -25.94140625 C-67.34255156 -32.99233318 -29.13465503 -24.52706978 0 0 Z " fill="#E3EAF6" transform="translate(391.3349609375,50.5546875)"/>
<path d="M0 0 C26.61871488 23.21365124 45.01076625 56.7574143 47.6640625 92.32421875 C47.79306707 96.52859507 47.85129844 100.73126388 47.875 104.9375 C47.87983398 105.76314453 47.88466797 106.58878906 47.88964844 107.43945312 C47.8781446 111.4657977 47.75407195 115.19636929 46.75 119.125 C47.28625 119.1765625 47.8225 119.228125 48.375 119.28125 C60.61534055 121.05287824 72.68673549 127.86545895 81.75 136.125 C82.55695313 136.84042969 83.36390625 137.55585938 84.1953125 138.29296875 C98.4822174 151.68421142 108.37406407 170.70572439 109.18359375 190.45703125 C109.2072833 192.61705799 109.20811186 194.7774417 109.1875 196.9375 C109.17847656 198.07751465 109.16945313 199.2175293 109.16015625 200.39208984 C108.7851697 218.69612077 102.21547475 236.4796655 89.75 250.125 C88.99976563 250.95515625 88.24953125 251.7853125 87.4765625 252.640625 C81.81286156 258.60805754 75.90536582 263.09235163 68.75 267.125 C67.96109375 267.58648437 67.1721875 268.04796875 66.359375 268.5234375 C55.61292198 274.39484395 42.0304359 277.99764079 29.75 277.125 C25.13419619 274.89339237 25.13419619 274.89339237 23.75 272.125 C23.26980186 267.8832498 23.1543184 265.88895323 25.82421875 262.46484375 C29.36224292 259.63536915 31.46043908 259.36187643 35.9375 259 C51.76842508 257.36555567 65.95907943 251.1748613 76.75 239.125 C88.78299507 223.84934716 93.94984612 206.49770503 91.75 187.125 C89.18081197 170.66273305 79.62192407 155.93919082 66.453125 145.94140625 C56.69399215 139.38360744 46.20817096 135.67102699 34.66015625 133.84765625 C31.91163539 132.80782729 31.20564822 131.68920386 29.75 129.125 C29.51629395 126.36726855 29.44737482 123.84648885 29.52734375 121.09765625 C29.54082603 119.92051308 29.54082603 119.92051308 29.55458069 118.71958923 C29.58455031 116.20843941 29.63420282 113.6982553 29.6875 111.1875 C29.89996798 100.28330159 29.95796559 89.8730436 27.75 79.125 C27.60892822 78.41657959 27.46785645 77.70815918 27.32250977 76.97827148 C20.86568278 47.00667399 1.48488141 20.24255885 -24.1171875 3.66015625 C-33.42273481 -2.14760776 -43.06529483 -6.68627894 -53.4375 -10.25 C-54.46883057 -10.60831909 -54.46883057 -10.60831909 -55.52099609 -10.97387695 C-66.78622241 -14.61944035 -78.29987625 -15.23869749 -90.0625 -15.1875 C-92.04044556 -15.18121582 -92.04044556 -15.18121582 -94.05834961 -15.17480469 C-103.49219586 -15.06538627 -112.1434367 -14.37420995 -121.25 -11.875 C-122.35472656 -11.58496094 -123.45945312 -11.29492188 -124.59765625 -10.99609375 C-155.57618428 -2.17145942 -180.57900486 18.09191369 -196.6875 45.875 C-197.09871094 46.63296875 -197.50992188 47.3909375 -197.93359375 48.171875 C-199.54013872 50.55547287 -200.67683991 51.8009039 -203.25 53.125 C-209.02427249 53.007299 -213.18901989 50.87639773 -218.125 48.1875 C-232.21409827 40.90578224 -247.82975284 39.98996166 -263.25 44.125 C-281.35126814 50.59696179 -293.85860136 62.05742676 -302.25 79.125 C-308.34190307 93.40399823 -309.19714018 108.28357946 -304.25 123.125 C-303.6882716 129.30401235 -303.6882716 129.30401235 -305.875 132.5 C-308.8536389 134.53801609 -310.63499101 134.98596119 -314.25 135.125 C-316.10202108 134.62892292 -317.95357081 134.13088793 -319.80078125 133.6171875 C-334.87346297 130.58822754 -349.65412163 134.88246205 -362.25 143.125 C-374.67507125 152.49159217 -383.39705597 165.72084714 -386.25 181.125 C-388.1575562 198.65644336 -383.96005037 213.15123052 -373.58203125 227.41796875 C-364.14648883 239.10677503 -350.110204 246.21026336 -335.375 248.0625 C-331.28707666 248.6188446 -329.56802772 248.89134698 -326.1875 251.375 C-324.15325776 254.26231157 -322.15052943 257.14750389 -320.25 260.125 C-319.6725 260.764375 -319.095 261.40375 -318.5 262.0625 C-316.57044059 265.24627303 -316.73912682 267.48502857 -317.25 271.125 C-319.25 274.125 -319.25 274.125 -322.25 276.125 C-326.54672579 276.39780799 -328.79349201 276.39002741 -332.0625 273.55078125 C-334.11421755 271.19821088 -335.85261974 268.91976052 -337.25 266.125 C-339.97513355 265.32278318 -342.68091299 264.61275351 -345.4375 263.9375 C-365.58404125 258.65230866 -382.90635541 247.02673518 -393.72265625 228.90625 C-400.46147512 216.63505042 -403.82772099 204.85869968 -403.6875 190.8125 C-403.67847656 189.72018066 -403.66945313 188.62786133 -403.66015625 187.50244141 C-403.21761772 166.7615209 -394.58361686 149.1640241 -379.796875 134.73046875 C-364.00720359 120.85541319 -344.88517625 115.66731738 -324.25 115.125 C-324.27094727 114.54234375 -324.29189453 113.9596875 -324.31347656 113.359375 C-325.05821814 89.37681087 -320.33359888 68.71625676 -304.25 50.125 C-290.3993447 35.60135048 -271.76919902 25.57012707 -251.46484375 24.7890625 C-249.37256531 24.75941885 -247.27998622 24.74695999 -245.1875 24.75 C-243.54128662 24.75132935 -243.54128662 24.75132935 -241.86181641 24.75268555 C-230.087338 24.92291689 -220.00745771 27.3484698 -209.25 32.125 C-208.91379639 31.67286133 -208.57759277 31.22072266 -208.23120117 30.75488281 C-183.43461539 -2.46437622 -152.27884636 -26.05497387 -110.28540039 -32.16064453 C-70.20274955 -37.22476518 -30.81816191 -26.05873056 0 0 Z " fill="#2C3D65" transform="translate(403.25,38.875)"/>
<path d="M0 0 C7.76745316 3.17624518 13.40624131 8.38936339 19.5234375 14.00390625 C27.09906422 20.70676491 33.2941402 24.62684458 43.44140625 25.56640625 C53.74257718 24.67837427 60.47562464 20.40045572 68.31640625 13.94140625 C71.86304246 11.0234701 75.42020521 8.15138623 79.12890625 5.44140625 C79.84175781 4.91933594 80.55460937 4.39726562 81.2890625 3.859375 C89.03314957 -0.61716478 95.94968024 -2.45181391 104.87890625 -2.30859375 C105.84014404 -2.29908691 106.80138184 -2.28958008 107.79174805 -2.27978516 C115.76855039 -2.04740546 122.00399465 -0.6283551 129.06640625 3.25390625 C130.23429687 3.888125 130.23429687 3.888125 131.42578125 4.53515625 C136.76968106 7.79455614 141.15214207 12.06798634 145.68017578 16.34375 C151.90953518 22.12658186 157.78791027 24.83990657 166.25390625 25.50390625 C176.94090374 24.80311953 186.5585718 20.19033232 193.87890625 12.37890625 C201.2646901 4.55689484 211.4139594 -1.56875915 222.26171875 -2.1171875 C233.06852509 -2.34085184 242.55796379 -2.53718068 252.06640625 3.25390625 C252.83339844 3.68832031 253.60039062 4.12273437 254.390625 4.5703125 C258.91646409 7.34268514 262.65027894 10.67866843 266.50390625 14.31640625 C273.61065183 20.94404538 281.62883671 25.75669603 291.60546875 25.515625 C301.68390958 24.44379082 308.2315809 20.90530594 315.375 13.85546875 C328.69699679 0.97818303 340.45498582 -2.25161196 358.390625 -2.0234375 C364.58371951 -1.82093026 369.64645107 -0.83218922 375.06640625 2.25390625 C375.81148438 2.66640625 376.5565625 3.07890625 377.32421875 3.50390625 C382.96189535 6.96115741 387.59926211 11.43658264 392.43359375 15.9140625 C400.09165854 22.71996874 407.22313833 25.58590083 417.50390625 25.19140625 C427.58917238 24.1573179 433.10579186 19.36504693 440.34375 12.6640625 C451.67275271 2.63537574 463.09682557 -3.11006031 478.5078125 -3.27734375 C481.80228908 -2.59329976 482.99057509 -1.3456005 485.06640625 1.25390625 C486.22352433 4.87954291 486.40157715 6.51653027 484.81640625 10.00390625 C482.57177665 12.88985859 480.92132597 14.12440929 477.28125 14.67578125 C476.19972656 14.7840625 475.11820312 14.89234375 474.00390625 15.00390625 C464.16343054 16.45167535 458.28076078 20.97139581 451.19140625 27.69140625 C440.58090853 37.72552288 429.1181432 43.09650984 414.31640625 43.56640625 C412.89752878 43.49871668 411.47992489 43.39447716 410.06640625 43.25390625 C409.31488281 43.18429687 408.56335938 43.1146875 407.7890625 43.04296875 C395.15858432 41.20059754 385.6961819 34.46299912 376.8203125 25.84765625 C370.93886606 20.30825138 364.50036501 15.66785048 356.24609375 15.0390625 C352.58230128 15.28661605 350.56657682 16.27904935 347.37890625 18.06640625 C343.37307506 20.2054904 339.88498731 21.65878118 335.44140625 22.56640625 C329.75081188 23.93802727 326.66181116 26.95309688 322.53515625 30.96875 C313.26747568 39.54722014 301.0587832 43.70885532 288.4921875 43.46484375 C273.95482812 42.20072554 264.89564444 37.0637576 254.46313477 27.31396484 C248.39754659 21.34390195 248.39754659 21.34390195 241.06640625 17.25390625 C238.65859341 17.45803682 236.91750666 18.13943544 234.70703125 19.11328125 C231.43239738 20.52776807 228.13357378 21.44520089 224.69140625 22.37890625 C224.04469971 22.55687744 223.39799316 22.73484863 222.73168945 22.91821289 C218.81326002 23.9498969 215.16974336 24.44838458 211.12890625 24.56640625 C205.97098708 24.89304914 203.75082164 26.7048247 200.15625 30.27734375 C190.35070453 39.55137367 177.99309939 43.69218041 164.6484375 43.46484375 C150.76842077 42.33092408 141.64073393 36.83561459 131.64453125 27.578125 C124.00359558 20.43648413 124.00359558 20.43648413 114.56640625 16.62890625 C108.78026623 17.65305769 108.78026623 17.65305769 103.015625 18.7890625 C100.06640625 19.25390625 100.06640625 19.25390625 97.1484375 19.1875 C90.99691805 19.06560728 87.61333122 20.15032262 83.15478516 24.25854492 C81.50159693 25.88117288 79.86584185 27.51961641 78.234375 29.1640625 C68.71730469 38.71589836 57.07352276 43.06817707 43.75390625 43.44140625 C30.07412945 43.18722121 19.41532808 37.92154144 9.5703125 28.56640625 C1.83265785 21.42024158 -5.95969753 15.65948206 -16.62109375 14.81640625 C-19.65605448 14.52761241 -21.17248895 14.13689635 -23.99609375 12.75390625 C-26.48583749 9.54133368 -26.66831497 7.3783156 -26.3984375 3.3828125 C-25.93359375 1.25390625 -25.93359375 1.25390625 -24.12109375 -1.30859375 C-16.19289816 -4.8840545 -7.9273497 -2.68612676 0 0 Z " fill="#2B3C65" transform="translate(25.93359375,308.74609375)"/>
<path d="M0 0 C6.67130129 3.84963455 12.1050971 8.88182991 17.65966797 14.14038086 C24.89627054 20.86714794 32.00325467 23.40721834 41.80859375 23.265625 C50.66027246 22.52888797 56.0824562 18.42047731 62.36328125 12.4453125 C74.26517358 1.40740939 86.77590659 -5.66562185 103.296875 -5.25 C118.82992903 -3.81341697 128.18837804 2.90157766 139.52539062 12.72998047 C147.936467 19.97408962 154.69818639 23.70594881 166.0546875 23.3359375 C176.32825921 22.16415081 183.78070772 14.90176879 191.0546875 8.0703125 C201.01035474 -1.22439758 213.18702915 -5.6318621 226.7734375 -5.17578125 C240.82228427 -4.06666177 251.48615497 1.98964716 261.36621094 11.64135742 C268.50253287 18.57626866 275.54194255 23.05975845 285.625 23.3125 C297.5478358 23.0965066 304.08060924 17.57281496 312.61328125 9.98046875 C323.79249846 0.04997728 335.4647125 -5.44705126 350.6328125 -5.140625 C365.19105037 -4.27577919 376.08868669 2.54698545 386.24609375 12.40625 C394.53283392 20.21106627 402.26706632 23.5560189 413.6953125 23.296875 C423.13226734 22.44911074 428.51112087 18.00470388 435.20703125 11.6015625 C446.03642194 1.51432586 457.07442096 -4.10446073 471.8125 -5.3125 C475.34946692 -4.96573854 477.19390601 -4.14583658 480 -2 C481.56471233 1.12942465 481.69701958 4.61082223 481 8 C478.72860733 11.20295118 477.32300699 11.92691343 473.4609375 12.80078125 C472.09984813 12.97831465 470.73779471 13.14857031 469.375 13.3125 C457.63109405 15.15149281 451.13059253 21.81956554 442.578125 29.703125 C432.10345903 39.03510013 419.7267974 41.85852402 405.95703125 41.3203125 C400.90488402 40.9113529 396.63483111 40.03399063 392 38 C390.95585938 37.55914062 390.95585938 37.55914062 389.890625 37.109375 C383.89418654 34.17681021 379.14803349 29.81776287 374.16650391 25.45776367 C365.53713408 17.92316464 358.0750007 12.35505369 346.0625 12.75390625 C335.65055692 13.99624037 327.9988923 20.04472451 320.5625 27 C309.13118494 37.57277401 297.56651807 41.91783441 281.99609375 41.34375 C268.83844025 40.46005056 257.59668533 34.1921949 248.6796875 24.69921875 C241.97014925 17.91166262 234.37556194 13.50004407 224.8125 12.75 C212.83449181 13.53544316 206.01463899 19.19202214 197.5 27.0625 C185.84866051 37.70831293 173.75426184 41.93777044 157.95703125 41.3203125 C152.90488402 40.9113529 148.63483111 40.03399063 144 38 C143.30390625 37.70609375 142.6078125 37.4121875 141.890625 37.109375 C135.89528511 34.17734746 131.14692687 29.82009903 126.16870117 25.45776367 C118.15750296 18.4562615 110.47470672 12.23621926 99.2109375 12.7109375 C88.20831091 14.14944345 81.4312242 20.45670502 73.54052734 27.62011719 C61.85233408 38.08947826 50.46600368 41.63551127 34.87890625 41.25390625 C23.59076603 40.51500483 14.27093809 35.60371609 6 28.125 C4.77720982 27.05465359 3.55326099 25.98562931 2.328125 24.91796875 C1.75126953 24.41185059 1.17441406 23.90573242 0.58007812 23.38427734 C-6.38547858 17.28188141 -12.3343681 14.17265746 -21.53125 12.5546875 C-27.53040123 11.48341049 -27.53040123 11.48341049 -30.125 8.8125 C-31.27078677 5.12961395 -30.96334697 2.71576687 -30 -1 C-23.77046373 -9.49482219 -7.73057193 -3.78427698 0 0 Z " fill="#2A3B64" transform="translate(31,445)"/>
<path d="M0 0 C8.30336563 3.07877602 15.00067536 9.16253673 21.31640625 15.22265625 C27.95553198 21.57673901 34.81218636 25.07653823 44.125 25.4375 C55.42657563 24.84924764 62.42606829 19.29657717 70.43359375 11.6875 C81.62637292 1.08569957 93.34846644 -3.54954962 108.6640625 -3.24609375 C122.50940267 -2.2247162 131.73082175 3.62920619 141.59838867 12.95092773 C149.97581616 20.8248162 157.6810661 25.56286431 169.45703125 25.2421875 C180.36423513 24.20340618 187.20015039 17.606638 194.9375 10.4375 C205.7937079 0.61840287 217.05036344 -3.70330499 231.76953125 -3.28125 C245.43276595 -2.09170599 254.55993141 3.51942918 264.421875 12.68359375 C272.94421279 20.34078513 280.57183666 25.67909577 292.34375 25.2890625 C303.59961305 24.06415976 310.31343007 17.66791095 318.37353516 10.42724609 C330.48953772 -0.20471893 343.01438721 -3.9798219 359 -3 C371.863723 -1.12370913 380.32410358 5.24562579 389.80786133 13.59082031 C398.43055788 21.10895168 405.78358224 25.3961194 417.38671875 25.20703125 C427.0327674 24.44284503 433.50487214 19.26171251 440.33203125 12.7890625 C451.0214532 2.6695128 462.85419449 -3.70272736 477.76171875 -3.30859375 C481.24711221 -2.82805957 482.82613009 -1.7348686 485 1 C485.93605213 4.49459462 486.3742539 6.84605048 485.25 10.3125 C483.25351622 13.0077531 481.40753483 13.9297546 478.14453125 14.4921875 C477.04496094 14.61851562 475.94539063 14.74484375 474.8125 14.875 C464.89976203 16.33340061 459.90746974 19.84904511 452.64453125 26.62109375 C440.05423571 37.94678058 428.32675316 43.58621305 411.30078125 43.24609375 C397.02331605 42.18162001 387.86680529 35.95843382 377.6640625 26.40234375 C369.35561259 18.91011986 361.06747566 14.32041409 349.7265625 14.7265625 C338.41143389 15.86131752 331.50211828 22.81444424 323.375 30.1875 C312.58784601 39.8391641 301.17182146 43.42401329 286.76171875 43.2734375 C273.07072021 42.2782455 262.23216165 35.68504166 252.9609375 25.921875 C246.20778097 19.3032435 238.10532393 14.97526691 228.625 14.5625 C218.73726186 14.91709475 212.65812435 18.86820227 205.640625 25.5546875 C192.71513698 37.5241483 180.92943244 43.58261859 163.23828125 43.25 C149.92119233 42.22190146 140.88972659 35.97521299 131.16845703 27.45776367 C122.42565953 19.81583187 114.67600113 14.3110947 102.58984375 14.7109375 C92.69848311 15.8149506 86.52404088 21.66791286 79.390625 28.01953125 C67.59321605 38.50208931 56.21707448 43.39080107 40.37109375 43.2109375 C27.2681761 42.39105621 17.17848694 36.350007 7.9375 27.4375 C-0.30473782 19.50633194 -6.95761622 16.14180757 -18.34765625 14.5 C-21.9895074 13.81346547 -23.81704629 13.04054267 -26 10 C-26.68583626 6.84399078 -26.69464209 4.15483284 -26 1 C-20.16095715 -6.98002523 -7.8119804 -2.71413216 0 0 Z " fill="#2A3B64" transform="translate(26,376)"/>
<path d="M0 0 C0.66 0.66 1.32 1.32 2 2 C-8.42007441 7.95432823 -20.01335819 10.89712912 -32 10 C-24.77845812 -0.98930286 -12.15973116 -2.037717 0 0 Z " fill="#C9D7ED" transform="translate(264,323)"/>
<path d="M0 0 C0.66 0 1.32 0 2 0 C2.90826593 1.36239889 3.81280316 2.72737009 4.703125 4.1015625 C12.32692964 15.26171026 23.28893085 22.81984653 36.01171875 27.24609375 C38 28 38 28 41 30 C27.96505352 29.77525954 17.52886664 22.60441632 8.578125 13.72265625 C0 4.66363636 0 4.66363636 0 0 Z " fill="#E2EAF6" transform="translate(291,301)"/>
<path d="M0 0 C2.64547592 2.44322241 4.53692048 5.15640538 6.5625 8.125 C15.05778044 19.77917533 25.308613 25.77209199 38 32 C32.80060867 33.58335659 29.82404966 31.32497193 25.16796875 28.875 C15.29325045 23.03053047 6.01586766 14.84414708 0 5 C-0.3125 2.0625 -0.3125 2.0625 0 0 Z " fill="#E2EAF6" transform="translate(173,296)"/>
<path d="M0 0 C-4.59256408 5.36060381 -12.90545056 7.96764506 -19.75 8.8125 C-21.35875 8.9053125 -21.35875 8.9053125 -23 9 C-16.33198053 1.4984781 -9.990292 -0.73698875 0 0 Z " fill="#C8D6EA" transform="translate(379,323)"/>
<path d="M0 0 C0.87914062 0.01353516 1.75828125 0.02707031 2.6640625 0.04101562 C4.81797552 0.07613377 6.97157004 0.12993306 9.125 0.1875 C9.125 0.8475 9.125 1.5075 9.125 2.1875 C0.72852122 4.06831125 -7.20991247 5.73798791 -15.875 5.1875 C-15.875 4.5275 -15.875 3.8675 -15.875 3.1875 C-10.495384 -0.17255524 -6.12121851 -0.1797647 0 0 Z " fill="#CEDAED" transform="translate(131.875,322.8125)"/>
<path d="M0 0 C0.53625 0.17015625 1.0725 0.3403125 1.625 0.515625 C9.6698937 3.00319081 17.82333536 5.00148519 26 7 C26 7.33 26 7.66 26 8 C16.92209334 8.52372538 7.89184662 6.60357719 0 2 C0 1.34 0 0.68 0 0 Z " fill="#E2EAF6" transform="translate(401,300)"/>
<path d="M0 0 C3.63 2.31 7.26 4.62 11 7 C10.67 7.99 10.34 8.98 10 10 C8.3251177 8.90833564 6.66026877 7.80126363 5 6.6875 C3.6078125 5.76517578 3.6078125 5.76517578 2.1875 4.82421875 C1.465625 4.22222656 0.74375 3.62023437 0 3 C0 2.01 0 1.02 0 0 Z " fill="#E3EBF7" transform="translate(84,312)"/>
</svg>
